<svg id="Layer_1" xmlns="http://www.w3.org/2000/svg" viewBox="0 0 36 24"><style>.st0{fill:#fff}</style><path class="st0" d="M19.6 10.2c-.6 1-1.1 2.3-1.6 3.7-1.2 3.3-2.2 4.2-2.5 4.5h-.2c-.7 0-1.3.4-1.6 1.1-.2.4-.1.9.1 1.3s.5.7.9.8c.2.1.5.1.8.1 1.2 0 3.4-.9 5.6-6.8.1-.2.1-.4.2-.5-.3-.6-.6-1.4-.8-2.1-.4-.7-.7-1.4-.9-2.1zm16 8.2c-.7-.3-2.1-1.4-3.4-5.1-2.5-6.9-5.7-7.4-6.6-7.5h-.4c-.9 0-1.8.2-2.6.8.5.9 1 1.9 1.5 3.1.4-.4.9-.6 1.3-.5h.2c.7.2 2.1 1.5 3.5 5.2.6 1.9 1.4 3.2 2.1 4.3 1.9 2.7 3.9 3.1 4.7 3.1l-.3-3.4z"/><path class="st0" d="M31.3 20c-.1-.9-.9-1.6-1.8-1.5-.1 0-3-.3-5.5-7.4-.1-.4-.3-.7-.4-1-3.1-7.9-6.8-8.5-7.9-8.5h-.5c-3.7 0-6.6 3.2-9.2 10.5-1.9 5.1-3.4 6.2-3.8 6.4h-.4c-.7 0-1.3.4-1.6 1.1-.3.9.1 1.8 1 2.1.3.1.6.2.9.2 1.4 0 4.1-1.1 6.9-8.7 2-5.5 4.1-8.3 6.1-8.3h.7c.6.2 2.9 1.2 5.1 7.3.2.6.4 1.1.6 1.6 3.2 7.6 7.3 8 8.1 8h.2c.9-.1 1.6-.9 1.5-1.8z"/></svg>